<svg width="28" height="28" viewBox="0 0 28 28" fill="none" xmlns="http://www.w3.org/2000/svg">
<path d="M14 7.62518C12.7391 7.62518 11.5066 7.99907 10.4582 8.69957C9.40988 9.40006 8.59278 10.3957 8.11027 11.5606C7.62776 12.7255 7.50151 14.0073 7.7475 15.2439C7.99348 16.4805 8.60064 17.6164 9.4922 18.508C10.3838 19.3996 11.5197 20.0067 12.7563 20.2527C13.9929 20.4987 15.2747 20.3724 16.4396 19.8899C17.6045 19.4074 18.6001 18.5903 19.3006 17.5419C20.0011 16.4936 20.375 15.261 20.375 14.0002C20.3732 12.31 19.701 10.6895 18.5059 9.49432C17.3107 8.29916 15.6902 7.62694 14 7.62518ZM14 18.2502C13.1594 18.2502 12.3377 18.0009 11.6388 17.5339C10.9399 17.0669 10.3952 16.4032 10.0735 15.6266C9.75184 14.85 9.66768 13.9955 9.83166 13.1711C9.99565 12.3466 10.4004 11.5894 10.9948 10.995C11.5892 10.4006 12.3464 9.99583 13.1709 9.83185C13.9953 9.66786 14.8498 9.75202 15.6264 10.0737C16.403 10.3954 17.0668 10.9401 17.5337 11.639C18.0007 12.3379 18.25 13.1596 18.25 14.0002C18.25 15.1274 17.8022 16.2084 17.0052 17.0054C16.2082 17.8024 15.1272 18.2502 14 18.2502ZM25.6875 14.2871C25.6928 14.0958 25.6928 13.9046 25.6875 13.7133L27.6691 11.2377C27.773 11.1077 27.8449 10.9551 27.879 10.7923C27.9132 10.6294 27.9086 10.4608 27.8656 10.3C27.5408 9.07895 27.0549 7.90654 26.4206 6.8137C26.3376 6.67068 26.2223 6.54903 26.084 6.45841C25.9456 6.3678 25.788 6.31073 25.6238 6.29175L22.4734 5.94112C22.3424 5.803 22.2096 5.67018 22.075 5.54268L21.7031 2.3844C21.684 2.22 21.6267 2.06233 21.5359 1.92398C21.445 1.78563 21.3231 1.67042 21.1798 1.58753C20.0866 0.954458 18.9143 0.46901 17.6935 0.143855C17.5326 0.101085 17.364 0.0967104 17.2011 0.131084C17.0382 0.165457 16.8857 0.237616 16.7559 0.341745L14.2869 2.31268H13.7131L11.2375 0.335105C11.1075 0.231203 10.9549 0.159285 10.7921 0.125143C10.6292 0.0910011 10.4606 0.0955906 10.2998 0.138542C9.07897 0.463969 7.90664 0.949871 6.81352 1.58354C6.6705 1.66658 6.54884 1.78186 6.45823 1.92021C6.36762 2.05855 6.31055 2.21613 6.29156 2.38042L5.94094 5.53604C5.80281 5.66797 5.67 5.80078 5.5425 5.93448L2.38422 6.29706C2.21981 6.31619 2.06215 6.37346 1.9238 6.46431C1.78545 6.55516 1.67023 6.67708 1.58734 6.82034C0.954274 7.9136 0.468827 9.08591 0.143671 10.3067C0.100902 10.4675 0.0965273 10.6362 0.130901 10.7991C0.165274 10.9619 0.237433 11.1145 0.341562 11.2443L2.3125 13.7133V14.2871L0.334922 16.7627C0.23102 16.8927 0.159102 17.0452 0.12496 17.2081C0.090818 17.371 0.0954075 17.5396 0.138359 17.7003C0.463189 18.9214 0.949124 20.0938 1.58336 21.1867C1.6664 21.3297 1.78168 21.4513 1.92002 21.542C2.05837 21.6326 2.21595 21.6896 2.38023 21.7086L5.53055 22.0592C5.66248 22.1974 5.79529 22.3302 5.92899 22.4577L6.29688 25.616C6.316 25.7804 6.37327 25.938 6.46413 26.0764C6.55498 26.2147 6.67689 26.33 6.82016 26.4128C7.91341 27.0459 9.08572 27.5314 10.3065 27.8565C10.4674 27.8993 10.636 27.9037 10.7989 27.8693C10.9618 27.8349 11.1143 27.7628 11.2441 27.6586L13.7131 25.6877C13.9044 25.693 14.0956 25.693 14.2869 25.6877L16.7625 27.6692C16.8925 27.7731 17.0451 27.8451 17.2079 27.8792C17.3708 27.9134 17.5394 27.9088 17.7002 27.8658C18.9212 27.541 20.0936 27.055 21.1865 26.4208C21.3295 26.3378 21.4512 26.2225 21.5418 26.0841C21.6324 25.9458 21.6895 25.7882 21.7084 25.6239L22.0591 22.4736C22.1972 22.3426 22.33 22.2098 22.4575 22.0752L25.6158 21.7033C25.7802 21.6842 25.9379 21.6269 26.0762 21.5361C26.2146 21.4452 26.3298 21.3233 26.4127 21.18C27.0457 20.0868 27.5312 18.9145 27.8563 17.6937C27.8991 17.5328 27.9035 17.3642 27.8691 17.2013C27.8347 17.0384 27.7626 16.8859 27.6584 16.756L25.6875 14.2871ZM23.5492 13.4238C23.5718 13.8077 23.5718 14.1927 23.5492 14.5766C23.5334 14.8394 23.6158 15.0988 23.7803 15.3044L25.6649 17.6592C25.4487 18.3464 25.1718 19.0131 24.8375 19.6514L21.8359 19.9914C21.5745 20.0204 21.3332 20.1453 21.1586 20.342C20.903 20.6295 20.6307 20.9018 20.3431 21.1574C20.1464 21.3321 20.0215 21.5734 19.9925 21.8348L19.6591 24.8337C19.021 25.1681 18.3543 25.4451 17.667 25.6611L15.3109 23.7765C15.1223 23.6259 14.8881 23.5439 14.6468 23.5441H14.583C14.1991 23.5666 13.8142 23.5666 13.4302 23.5441C13.1674 23.5283 12.908 23.6106 12.7024 23.7752L10.341 25.6611C9.65376 25.4449 8.98708 25.168 8.34883 24.8337L8.00883 21.8361C7.97981 21.5747 7.85488 21.3334 7.6582 21.1588C7.37065 20.9032 7.09836 20.6309 6.84274 20.3433C6.66813 20.1466 6.42679 20.0217 6.16539 19.9927L3.16648 19.658C2.83204 19.0198 2.55514 18.3531 2.33906 17.6658L4.22367 15.3097C4.38823 15.1041 4.47059 14.8448 4.45477 14.5819C4.43221 14.198 4.43221 13.813 4.45477 13.4291C4.47059 13.1662 4.38823 12.9069 4.22367 12.7013L2.33906 10.3412C2.55533 9.65395 2.83223 8.98726 3.16648 8.34901L6.16406 8.00901C6.42546 7.98 6.6668 7.85506 6.84141 7.65839C7.09703 7.37084 7.36933 7.09855 7.65688 6.84292C7.85434 6.6682 7.97978 6.4263 8.00883 6.16425L8.34219 3.16667C8.98035 2.83222 9.64705 2.55532 10.3344 2.33925L12.6905 4.22386C12.8961 4.38842 13.1554 4.47077 13.4183 4.45495C13.8022 4.43239 14.1872 4.43239 14.5711 4.45495C14.834 4.47077 15.0933 4.38842 15.2989 4.22386L17.659 2.33925C18.3462 2.55552 19.0129 2.83241 19.6512 3.16667L19.9912 6.16425C20.0202 6.42564 20.1451 6.66699 20.3418 6.84159C20.6294 7.09722 20.9016 7.36951 21.1573 7.65706C21.3319 7.85374 21.5732 7.97867 21.8346 8.00768L24.8335 8.34104C25.168 8.97921 25.4449 9.64591 25.6609 10.3332L23.7763 12.6893C23.6102 12.8966 23.5277 13.1587 23.5452 13.4238H23.5492Z" fill="#E36414"/>
</svg>