<svg width="34" height="34" viewBox="0 0 34 34" fill="none" xmlns="http://www.w3.org/2000/svg">
<path d="M28.3334 26.9168V14.8752C28.3334 14.6552 28.2821 14.4383 28.1838 14.2416C28.0854 14.0449 27.9426 13.8738 27.7667 13.7418L17.85 6.30433C17.6048 6.12041 17.3065 6.021 17 6.021C16.6935 6.021 16.3952 6.12041 16.15 6.30433L6.23335 13.7418C6.05741 13.8738 5.9146 14.0449 5.81625 14.2416C5.71789 14.4383 5.66669 14.6552 5.66669 14.8752V26.9168C5.66669 27.2926 5.81594 27.6529 6.08162 27.9186C6.3473 28.1842 6.70763 28.3335 7.08335 28.3335H12.75C13.1257 28.3335 13.4861 28.1842 13.7518 27.9186C14.0174 27.6529 14.1667 27.2926 14.1667 26.9168V22.6668C14.1667 22.2911 14.3159 21.9308 14.5816 21.6651C14.8473 21.3994 15.2076 21.2502 15.5834 21.2502H18.4167C18.7924 21.2502 19.1527 21.3994 19.4184 21.6651C19.6841 21.9308 19.8334 22.2911 19.8334 22.6668V26.9168C19.8334 27.2926 19.9826 27.6529 20.2483 27.9186C20.514 28.1842 20.8743 28.3335 21.25 28.3335H26.9167C27.2924 28.3335 27.6527 28.1842 27.9184 27.9186C28.1841 27.6529 28.3334 27.2926 28.3334 26.9168Z" stroke="#E36414" stroke-width="2" stroke-linecap="round" stroke-linejoin="round"/>
</svg>
