<svg width="30" height="30" viewBox="0 0 30 30" fill="none" xmlns="http://www.w3.org/2000/svg">
<path d="M15 29C17.7689 29 20.4757 28.1789 22.778 26.6406C25.0803 25.1022 26.8747 22.9157 27.9343 20.3576C28.9939 17.7994 29.2712 14.9845 28.731 12.2687C28.1908 9.553 26.8574 7.05844 24.8995 5.10051C22.9416 3.14257 20.447 1.8092 17.7313 1.26901C15.0155 0.72882 12.2006 1.00607 9.64243 2.06569C7.08426 3.12532 4.89776 4.91973 3.35943 7.22202C1.82109 9.5243 1 12.2311 1 15C1 17.24 1.52578 19.3555 2.46222 21.2331C3.16689 22.6502 2.18689 24.562 1.81356 25.9573C1.73085 26.2659 1.73083 26.5909 1.81351 26.8995C1.8962 27.2081 2.05866 27.4895 2.28458 27.7154C2.51049 27.9413 2.7919 28.1038 3.10051 28.1865C3.40912 28.2692 3.73406 28.2691 4.04267 28.1864C5.438 27.8131 7.34978 26.8331 8.76689 27.5393C10.7032 28.503 12.8371 29.0031 15 29Z" stroke="#E36414" stroke-width="2" stroke-linecap="round" stroke-linejoin="round"/>
</svg>
