<svg width="38" height="38" viewBox="0 0 38 38" fill="none" xmlns="http://www.w3.org/2000/svg">
<path d="M6.33331 28.5003C6.33331 26.8206 7.00057 25.2097 8.1883 24.022C9.37603 22.8343 10.9869 22.167 12.6666 22.167H25.3333C27.013 22.167 28.6239 22.8343 29.8117 24.022C30.9994 25.2097 31.6666 26.8206 31.6666 28.5003C31.6666 29.3402 31.333 30.1456 30.7392 30.7395C30.1453 31.3334 29.3398 31.667 28.5 31.667H9.49998C8.66013 31.667 7.85467 31.3334 7.26081 30.7395C6.66694 30.1456 6.33331 29.3402 6.33331 28.5003Z" stroke="#E36414" stroke-width="2" stroke-linejoin="round"/>
<path d="M19 15.8335C21.6234 15.8335 23.75 13.7068 23.75 11.0835C23.75 8.46014 21.6234 6.3335 19 6.3335C16.3766 6.3335 14.25 8.46014 14.25 11.0835C14.25 13.7068 16.3766 15.8335 19 15.8335Z" stroke="#E36414" stroke-width="2"/>
</svg>
